<svg width="59" height="50" viewBox="0 0 59 50" fill="none" xmlns="http://www.w3.org/2000/svg">
<path d="M1 27.5V49H52V23H56.5L35.5 2L14 23H19V27.5H1Z" fill="#7AECFF" stroke="#4B4B4B" stroke-width="2"/>
<path d="M30.179 43V40.7841L35.3565 35.9901C35.7969 35.5639 36.1662 35.1804 36.4645 34.8395C36.7675 34.4986 36.9972 34.1648 37.1534 33.8381C37.3097 33.5066 37.3878 33.1491 37.3878 32.7656C37.3878 32.3395 37.2907 31.9725 37.0966 31.6648C36.9025 31.3523 36.6373 31.1132 36.3011 30.9474C35.965 30.777 35.5838 30.6918 35.1577 30.6918C34.7126 30.6918 34.3243 30.7817 33.9929 30.9616C33.6615 31.1416 33.4058 31.3996 33.2259 31.7358C33.0459 32.072 32.956 32.4721 32.956 32.9361H30.0369C30.0369 31.9844 30.2524 31.1581 30.6832 30.4574C31.1141 29.7566 31.7178 29.2145 32.4943 28.831C33.2708 28.4474 34.1657 28.2557 35.179 28.2557C36.2206 28.2557 37.1274 28.4403 37.8991 28.8097C38.6757 29.1742 39.2794 29.6809 39.7102 30.3295C40.1411 30.9782 40.3565 31.7216 40.3565 32.5597C40.3565 33.1089 40.2476 33.651 40.0298 34.1861C39.8168 34.7211 39.4356 35.3153 38.8864 35.9688C38.3371 36.6174 37.563 37.3963 36.5639 38.3054L34.4403 40.3864V40.4858H40.5483V43H30.179Z" fill="black"/>
</svg>
