<svg width="59" height="50" viewBox="0 0 59 50" fill="none" xmlns="http://www.w3.org/2000/svg">
<path d="M1 27.5V49H52V23H56.5L35.5 2L14 23H19V27.5H1Z" fill="#7AECFF" stroke="#4B4B4B" stroke-width="2"/>
<path d="M31.5071 28.4545V43H28.4318V31.3736H28.3466L25.0156 33.4616V30.7344L28.6165 28.4545H31.5071ZM34.9641 43V40.7841L40.1417 35.9901C40.582 35.5639 40.9513 35.1804 41.2496 34.8395C41.5527 34.4986 41.7823 34.1648 41.9386 33.8381C42.0948 33.5066 42.1729 33.1491 42.1729 32.7656C42.1729 32.3395 42.0759 31.9725 41.8817 31.6648C41.6876 31.3523 41.4225 31.1132 41.0863 30.9474C40.7501 30.777 40.369 30.6918 39.9428 30.6918C39.4978 30.6918 39.1095 30.7817 38.7781 30.9616C38.4466 31.1416 38.1909 31.3996 38.011 31.7358C37.8311 32.072 37.7411 32.4721 37.7411 32.9361H34.8221C34.8221 31.9844 35.0375 31.1581 35.4684 30.4574C35.8993 29.7566 36.503 29.2145 37.2795 28.831C38.056 28.4474 38.9509 28.2557 39.9641 28.2557C41.0058 28.2557 41.9125 28.4403 42.6843 28.8097C43.4608 29.1742 44.0645 29.6809 44.4954 30.3295C44.9263 30.9782 45.1417 31.7216 45.1417 32.5597C45.1417 33.1089 45.0328 33.651 44.815 34.1861C44.6019 34.7211 44.2208 35.3153 43.6715 35.9688C43.1223 36.6174 42.3481 37.3963 41.3491 38.3054L39.2255 40.3864V40.4858H45.3335V43H34.9641Z" fill="black"/>
</svg>
