<svg width="55" height="50" viewBox="0 0 55 50" fill="none" xmlns="http://www.w3.org/2000/svg">
<path d="M44.2939 22V48.5713H11V22H44.2939Z" fill="#B9B9B9" stroke="#4B4B4B" stroke-width="2"/>
<path d="M48.8594 22.25H6.14062L27.5 1.39746L48.8594 22.25Z" fill="#B9B9B9" stroke="#4B4B4B" stroke-width="2"/>
<rect x="12" y="21" width="31.29" height="3" fill="#B9B9B9"/>
<path d="M27.4418 27.2557C28.1899 27.2557 28.9096 27.3812 29.6009 27.6321C30.2969 27.883 30.9171 28.2831 31.4616 28.8324C32.0109 29.3816 32.4441 30.1108 32.7614 31.0199C33.0833 31.9242 33.2467 33.0346 33.2514 34.3509C33.2514 35.5866 33.1117 36.6899 32.8324 37.6605C32.5578 38.6264 32.1624 39.4479 31.6463 40.125C31.1302 40.8021 30.5076 41.3182 29.7784 41.6733C29.0492 42.0237 28.2348 42.1989 27.3352 42.1989C26.3646 42.1989 25.5076 42.0118 24.7642 41.6378C24.0208 41.259 23.4219 40.7453 22.9673 40.0966C22.5175 39.4432 22.2453 38.7093 22.1506 37.8949H25.1832C25.3016 38.4252 25.5502 38.8371 25.929 39.1307C26.3078 39.4195 26.7765 39.5639 27.3352 39.5639C28.2822 39.5639 29.0019 39.152 29.4943 38.3281C29.9867 37.4995 30.2353 36.3655 30.2401 34.9261H30.1406C29.9228 35.3523 29.6293 35.7192 29.2599 36.027C28.8906 36.33 28.4669 36.5644 27.9886 36.7301C27.5152 36.8958 27.0109 36.9787 26.4759 36.9787C25.6188 36.9787 24.8542 36.7775 24.1818 36.375C23.5095 35.9725 22.9792 35.4186 22.5909 34.7131C22.2027 34.0076 22.0085 33.2027 22.0085 32.2983C22.0038 31.3229 22.2287 30.4541 22.6832 29.6918C23.1378 28.9295 23.7723 28.3329 24.5866 27.902C25.4058 27.4664 26.3575 27.2509 27.4418 27.2557ZM27.4631 29.6705C26.9848 29.6705 26.5587 29.7841 26.1847 30.0114C25.8153 30.2386 25.5218 30.544 25.304 30.9276C25.0909 31.3111 24.9867 31.7396 24.9915 32.2131C24.9915 32.6913 25.0956 33.1222 25.304 33.5057C25.517 33.8845 25.8059 34.1875 26.1705 34.4148C26.5398 34.6373 26.9612 34.7486 27.4347 34.7486C27.7898 34.7486 28.1188 34.6823 28.4219 34.5497C28.7249 34.4171 28.9877 34.2348 29.2102 34.0028C29.4375 33.7661 29.6151 33.4938 29.7429 33.1861C29.8707 32.8783 29.9347 32.5516 29.9347 32.206C29.9299 31.7467 29.821 31.3253 29.608 30.9418C29.3949 30.5582 29.1013 30.2505 28.7273 30.0185C28.3532 29.7865 27.9318 29.6705 27.4631 29.6705Z" fill="black"/>
</svg>
