<svg width="49" height="51" viewBox="0 0 49 51" fill="none" xmlns="http://www.w3.org/2000/svg">
<path d="M8.5 23.5V49.5H42V23.5H46.5L25 2L3 23.5H8.5Z" fill="#B9B9B9" stroke="#4B4B4B" stroke-width="2"/>
<path d="M25.4418 30.2557C26.1899 30.2557 26.9096 30.3812 27.6009 30.6321C28.2969 30.883 28.9171 31.2831 29.4616 31.8324C30.0109 32.3816 30.4441 33.1108 30.7614 34.0199C31.0833 34.9242 31.2467 36.0346 31.2514 37.3509C31.2514 38.5866 31.1117 39.6899 30.8324 40.6605C30.5578 41.6264 30.1624 42.4479 29.6463 43.125C29.1302 43.8021 28.5076 44.3182 27.7784 44.6733C27.0492 45.0237 26.2348 45.1989 25.3352 45.1989C24.3646 45.1989 23.5076 45.0118 22.7642 44.6378C22.0208 44.259 21.4219 43.7453 20.9673 43.0966C20.5175 42.4432 20.2453 41.7093 20.1506 40.8949H23.1832C23.3016 41.4252 23.5502 41.8371 23.929 42.1307C24.3078 42.4195 24.7765 42.5639 25.3352 42.5639C26.2822 42.5639 27.0019 42.152 27.4943 41.3281C27.9867 40.4995 28.2353 39.3655 28.2401 37.9261H28.1406C27.9228 38.3523 27.6293 38.7192 27.2599 39.027C26.8906 39.33 26.4669 39.5644 25.9886 39.7301C25.5152 39.8958 25.0109 39.9787 24.4759 39.9787C23.6188 39.9787 22.8542 39.7775 22.1818 39.375C21.5095 38.9725 20.9792 38.4186 20.5909 37.7131C20.2027 37.0076 20.0085 36.2027 20.0085 35.2983C20.0038 34.3229 20.2287 33.4541 20.6832 32.6918C21.1378 31.9295 21.7723 31.3329 22.5866 30.902C23.4058 30.4664 24.3575 30.2509 25.4418 30.2557ZM25.4631 32.6705C24.9848 32.6705 24.5587 32.7841 24.1847 33.0114C23.8153 33.2386 23.5218 33.544 23.304 33.9276C23.0909 34.3111 22.9867 34.7396 22.9915 35.2131C22.9915 35.6913 23.0956 36.1222 23.304 36.5057C23.517 36.8845 23.8059 37.1875 24.1705 37.4148C24.5398 37.6373 24.9612 37.7486 25.4347 37.7486C25.7898 37.7486 26.1188 37.6823 26.4219 37.5497C26.7249 37.4171 26.9877 37.2348 27.2102 37.0028C27.4375 36.7661 27.6151 36.4938 27.7429 36.1861C27.8707 35.8783 27.9347 35.5516 27.9347 35.206C27.9299 34.7467 27.821 34.3253 27.608 33.9418C27.3949 33.5582 27.1013 33.2505 26.7273 33.0185C26.3532 32.7865 25.9318 32.6705 25.4631 32.6705Z" fill="black"/>
</svg>
