<svg width="40" height="86" viewBox="0 0 40 86" fill="none" xmlns="http://www.w3.org/2000/svg">
<path d="M20 21C25.0385 21 29.7662 24.3742 33.2871 30.1836C36.7968 35.9747 39 44.0392 39 53C39 61.9608 36.7968 70.0253 33.2871 75.8164C29.7662 81.6258 25.0385 85 20 85C14.9615 85 10.2338 81.6258 6.71289 75.8164C3.20315 70.0253 1 61.9608 1 53C1 44.0392 3.20315 35.9747 6.71289 30.1836C10.2338 24.3742 14.9615 21 20 21Z" fill="#E5E1D8" stroke="#4B4B4B" stroke-width="2"/>
<circle cx="20" cy="20" r="19" fill="#E5E1D8" stroke="#4B4B4B" stroke-width="2"/>
<path d="M16.179 60V57.7841L21.3565 52.9901C21.7969 52.5639 22.1662 52.1804 22.4645 51.8395C22.7675 51.4986 22.9972 51.1648 23.1534 50.8381C23.3097 50.5066 23.3878 50.1491 23.3878 49.7656C23.3878 49.3395 23.2907 48.9725 23.0966 48.6648C22.9025 48.3523 22.6373 48.1132 22.3011 47.9474C21.965 47.777 21.5838 47.6918 21.1577 47.6918C20.7126 47.6918 20.3243 47.7817 19.9929 47.9616C19.6615 48.1416 19.4058 48.3996 19.2259 48.7358C19.0459 49.072 18.956 49.4721 18.956 49.9361H16.0369C16.0369 48.9844 16.2524 48.1581 16.6832 47.4574C17.1141 46.7566 17.7178 46.2145 18.4943 45.831C19.2708 45.4474 20.1657 45.2557 21.179 45.2557C22.2206 45.2557 23.1274 45.4403 23.8991 45.8097C24.6757 46.1742 25.2794 46.6809 25.7102 47.3295C26.1411 47.9782 26.3565 48.7216 26.3565 49.5597C26.3565 50.1089 26.2476 50.651 26.0298 51.1861C25.8168 51.7211 25.4356 52.3153 24.8864 52.9688C24.3371 53.6174 23.563 54.3963 22.5639 55.3054L20.4403 57.3864V57.4858H26.5483V60H16.179Z" fill="black"/>
</svg>
