<svg width="125" height="51" viewBox="0 0 125 51" fill="none" xmlns="http://www.w3.org/2000/svg">
<path d="M67 27.5V49H118V23H122.5L101.5 2L80 23H85V27.5H67Z" fill="#E5E5E5" stroke="#4B4B4B" stroke-width="2"/>
<path d="M96.179 43V40.7841L101.357 35.9901C101.797 35.5639 102.166 35.1804 102.464 34.8395C102.768 34.4986 102.997 34.1648 103.153 33.8381C103.31 33.5066 103.388 33.1491 103.388 32.7656C103.388 32.3395 103.291 31.9725 103.097 31.6648C102.902 31.3523 102.637 31.1132 102.301 30.9474C101.965 30.777 101.584 30.6918 101.158 30.6918C100.713 30.6918 100.324 30.7817 99.9929 30.9616C99.6615 31.1416 99.4058 31.3996 99.2259 31.7358C99.0459 32.072 98.956 32.4721 98.956 32.9361H96.0369C96.0369 31.9844 96.2524 31.1581 96.6832 30.4574C97.1141 29.7566 97.7178 29.2145 98.4943 28.831C99.2708 28.4474 100.166 28.2557 101.179 28.2557C102.221 28.2557 103.127 28.4403 103.899 28.8097C104.676 29.1742 105.279 29.6809 105.71 30.3295C106.141 30.9782 106.357 31.7216 106.357 32.5597C106.357 33.1089 106.248 33.651 106.03 34.1861C105.817 34.7211 105.436 35.3153 104.886 35.9688C104.337 36.6174 103.563 37.3963 102.564 38.3054L100.44 40.3864V40.4858H106.548V43H96.179Z" fill="black"/>
<path d="M8.5 23.5V49.5H42V23.5H46.5L25 2L3 23.5H8.5Z" fill="#E5E5E5" stroke="#4B4B4B" stroke-width="2"/>
<path d="M26.5071 30.4545V45H23.4318V33.3736H23.3466L20.0156 35.4616V32.7344L23.6165 30.4545H26.5071Z" fill="black"/>
</svg>
