<svg width="40" height="86" viewBox="0 0 40 86" fill="none" xmlns="http://www.w3.org/2000/svg">
<path d="M20 21C25.0385 21 29.7662 24.3742 33.2871 30.1836C36.7968 35.9747 39 44.0392 39 53C39 61.9608 36.7968 70.0253 33.2871 75.8164C29.7662 81.6258 25.0385 85 20 85C14.9615 85 10.2338 81.6258 6.71289 75.8164C3.20315 70.0253 1 61.9608 1 53C1 44.0392 3.20315 35.9747 6.71289 30.1836C10.2338 24.3742 14.9615 21 20 21Z" fill="#B9B9B9" stroke="#4B4B4B" stroke-width="2"/>
<circle cx="20" cy="20" r="19" fill="#B9B9B9" stroke="#4B4B4B" stroke-width="2"/>
<path d="M19.7614 60.1989C19.0133 60.1941 18.2912 60.0687 17.5952 59.8224C16.9039 59.5762 16.2836 59.1761 15.7344 58.6222C15.1851 58.0682 14.7495 57.3343 14.4276 56.4205C14.1103 55.5066 13.9517 54.3845 13.9517 53.054C13.9564 51.8324 14.0961 50.741 14.3707 49.7798C14.6501 48.8139 15.0478 47.9948 15.5639 47.3224C16.0848 46.6501 16.7074 46.1387 17.4318 45.7884C18.1563 45.4332 18.9683 45.2557 19.8679 45.2557C20.8385 45.2557 21.6955 45.4451 22.4389 45.8239C23.1823 46.1979 23.7789 46.7069 24.2287 47.3509C24.6832 47.9948 24.9579 48.7169 25.0526 49.517H22.0199C21.9015 49.0104 21.6529 48.6127 21.2741 48.3239C20.8954 48.035 20.4266 47.8906 19.8679 47.8906C18.9209 47.8906 18.2012 48.3026 17.7088 49.1264C17.2211 49.9503 16.9725 51.0701 16.9631 52.4858H17.0625C17.2803 52.0549 17.5739 51.688 17.9432 51.3849C18.3172 51.0772 18.741 50.8428 19.2145 50.6818C19.6927 50.5161 20.197 50.4332 20.7273 50.4332C21.589 50.4332 22.3561 50.6368 23.0284 51.044C23.7008 51.4465 24.2311 52.0005 24.6193 52.706C25.0076 53.4115 25.2017 54.2187 25.2017 55.1278C25.2017 56.1127 24.9721 56.9886 24.5128 57.7557C24.0582 58.5227 23.4214 59.1241 22.6023 59.5597C21.7879 59.9905 20.8409 60.2036 19.7614 60.1989ZM19.7472 57.7841C20.2206 57.7841 20.6444 57.6705 21.0185 57.4432C21.3925 57.2159 21.6861 56.9081 21.8991 56.5199C22.1122 56.1316 22.2188 55.696 22.2188 55.2131C22.2188 54.7301 22.1122 54.2969 21.8991 53.9134C21.6908 53.5298 21.402 53.2244 21.0327 52.9972C20.6634 52.7699 20.242 52.6562 19.7685 52.6562C19.4134 52.6562 19.0843 52.7225 18.7812 52.8551C18.483 52.9877 18.2202 53.1723 17.9929 53.4091C17.7704 53.6458 17.5952 53.9205 17.4673 54.233C17.3395 54.5407 17.2756 54.8698 17.2756 55.2202C17.2756 55.6889 17.3821 56.1174 17.5952 56.5057C17.813 56.8939 18.1065 57.2041 18.4759 57.4361C18.8499 57.6681 19.2737 57.7841 19.7472 57.7841Z" fill="black"/>
</svg>
