<svg width="40" height="86" viewBox="0 0 40 86" fill="none" xmlns="http://www.w3.org/2000/svg">
<path d="M20 21C25.0385 21 29.7662 24.3742 33.2871 30.1836C36.7968 35.9747 39 44.0392 39 53C39 61.9608 36.7968 70.0253 33.2871 75.8164C29.7662 81.6258 25.0385 85 20 85C14.9615 85 10.2338 81.6258 6.71289 75.8164C3.20315 70.0253 1 61.9608 1 53C1 44.0392 3.20315 35.9747 6.71289 30.1836C10.2338 24.3742 14.9615 21 20 21Z" fill="#838383" stroke="#4B4B4B" stroke-width="2"/>
<circle cx="20" cy="20" r="19" fill="#838383" stroke="#4B4B4B" stroke-width="2"/>
<path d="M22.5071 45.4545V60H19.4318V48.3736H19.3466L16.0156 50.4616V47.7344L19.6165 45.4545H22.5071Z" fill="black"/>
</svg>
