<svg width="72" height="50" viewBox="0 0 72 50" fill="none" xmlns="http://www.w3.org/2000/svg">
<path d="M61.2939 22V48.5713H28V22H61.2939Z" fill="#E5E1D8" stroke="#4B4B4B" stroke-width="2"/>
<path d="M28 26.6V48.6H1V26.6H28Z" fill="#E5E1D8" stroke="#4B4B4B" stroke-width="2"/>
<path d="M65.8594 22.25H23.1406L44.5 1.39746L65.8594 22.25Z" fill="#E5E1D8" stroke="#4B4B4B" stroke-width="2"/>
<rect x="29" y="21" width="31.29" height="3" fill="#E5E1D8"/>
<rect width="2" height="19.98" transform="matrix(1 0 0 -1 27 47.56)" fill="#E5E1D8"/>
<path d="M32.179 43V40.7841L37.3565 35.9901C37.7969 35.5639 38.1662 35.1804 38.4645 34.8395C38.7675 34.4986 38.9972 34.1648 39.1534 33.8381C39.3097 33.5066 39.3878 33.1491 39.3878 32.7656C39.3878 32.3395 39.2907 31.9725 39.0966 31.6648C38.9025 31.3523 38.6373 31.1132 38.3011 30.9474C37.965 30.777 37.5838 30.6918 37.1577 30.6918C36.7126 30.6918 36.3243 30.7817 35.9929 30.9616C35.6615 31.1416 35.4058 31.3996 35.2259 31.7358C35.0459 32.072 34.956 32.4721 34.956 32.9361H32.0369C32.0369 31.9844 32.2524 31.1581 32.6832 30.4574C33.1141 29.7566 33.7178 29.2145 34.4943 28.831C35.2708 28.4474 36.1657 28.2557 37.179 28.2557C38.2206 28.2557 39.1274 28.4403 39.8991 28.8097C40.6757 29.1742 41.2794 29.6809 41.7102 30.3295C42.1411 30.9782 42.3565 31.7216 42.3565 32.5597C42.3565 33.1089 42.2476 33.651 42.0298 34.1861C41.8168 34.7211 41.4356 35.3153 40.8864 35.9688C40.3371 36.6174 39.563 37.3963 38.5639 38.3054L36.4403 40.3864V40.4858H42.5483V43H32.179ZM50.4798 43.3196C49.2582 43.3149 48.207 43.0142 47.3263 42.4176C46.4504 41.821 45.7757 40.9569 45.3022 39.8253C44.8335 38.6937 44.6014 37.3324 44.6062 35.7415C44.6062 34.1553 44.8406 32.8035 45.3093 31.6861C45.7828 30.5687 46.4575 29.7187 47.3335 29.1364C48.2141 28.5492 49.2629 28.2557 50.4798 28.2557C51.6966 28.2557 52.743 28.5492 53.619 29.1364C54.4996 29.7235 55.1767 30.5758 55.6502 31.6932C56.1237 32.8059 56.3581 34.1553 56.3533 35.7415C56.3533 37.3371 56.1166 38.7008 55.6431 39.8324C55.1744 40.964 54.502 41.8281 53.6261 42.4247C52.7501 43.0213 51.7013 43.3196 50.4798 43.3196ZM50.4798 40.7699C51.3131 40.7699 51.9783 40.3509 52.4755 39.5128C52.9727 38.6747 53.2189 37.4176 53.2141 35.7415C53.2141 34.6383 53.1005 33.7197 52.8732 32.9858C52.6507 32.2519 52.3335 31.7003 51.9215 31.331C51.5143 30.9616 51.0337 30.777 50.4798 30.777C49.6512 30.777 48.9883 31.1913 48.4911 32.0199C47.994 32.8485 47.743 34.089 47.7383 35.7415C47.7383 36.8589 47.8496 37.7917 48.0721 38.5398C48.2994 39.2831 48.619 39.8419 49.0309 40.2159C49.4428 40.5852 49.9258 40.7699 50.4798 40.7699Z" fill="black"/>
</svg>
