<svg width="72" height="50" viewBox="0 0 72 50" fill="none" xmlns="http://www.w3.org/2000/svg">
<path d="M61.2939 22V48.5713H28V22H61.2939Z" fill="#E5E1D8" stroke="#4B4B4B" stroke-width="2"/>
<path d="M28 26.6V48.6H1V26.6H28Z" fill="#E5E1D8" stroke="#4B4B4B" stroke-width="2"/>
<path d="M65.8594 22.25H23.1406L44.5 1.39746L65.8594 22.25Z" fill="#E5E1D8" stroke="#4B4B4B" stroke-width="2"/>
<rect x="29" y="21" width="31.29" height="3" fill="#E5E1D8"/>
<rect width="2" height="19.98" transform="matrix(1 0 0 -1 27 47.56)" fill="#E5E1D8"/>
<path d="M37.5554 43.1989C36.4948 43.1989 35.5502 43.0166 34.7216 42.652C33.8977 42.2827 33.2467 41.776 32.7685 41.1321C32.295 40.4834 32.0511 39.7353 32.0369 38.8878H35.1335C35.1525 39.2429 35.2685 39.5554 35.4815 39.8253C35.6993 40.0904 35.9882 40.2964 36.348 40.4432C36.7079 40.59 37.1127 40.6634 37.5625 40.6634C38.0312 40.6634 38.4455 40.5805 38.8054 40.4148C39.1652 40.2491 39.447 40.0194 39.6506 39.7259C39.8542 39.4323 39.956 39.0937 39.956 38.7102C39.956 38.322 39.8471 37.9787 39.6293 37.6804C39.4162 37.3774 39.1084 37.1406 38.706 36.9702C38.3082 36.7997 37.8348 36.7145 37.2855 36.7145H35.929V34.456H37.2855C37.7495 34.456 38.1591 34.3755 38.5142 34.2145C38.8741 34.0535 39.1534 33.831 39.3523 33.5469C39.5511 33.258 39.6506 32.9219 39.6506 32.5384C39.6506 32.1738 39.563 31.8542 39.3878 31.5795C39.2173 31.3002 38.9759 31.0824 38.6634 30.9261C38.3556 30.7699 37.9957 30.6918 37.5838 30.6918C37.1671 30.6918 36.786 30.7675 36.4403 30.919C36.0947 31.0658 35.8177 31.2765 35.6094 31.5511C35.401 31.8258 35.2898 32.1477 35.2756 32.517H32.3281C32.3423 31.679 32.5814 30.9403 33.0455 30.3011C33.5095 29.6619 34.1345 29.1624 34.9205 28.8026C35.7112 28.438 36.6037 28.2557 37.598 28.2557C38.6018 28.2557 39.4801 28.438 40.233 28.8026C40.9858 29.1671 41.5705 29.6596 41.9872 30.2798C42.4086 30.8954 42.617 31.5866 42.6122 32.3537C42.617 33.1681 42.3636 33.8475 41.8523 34.392C41.3456 34.9366 40.6851 35.2822 39.8707 35.429V35.5426C40.9408 35.6799 41.7552 36.0516 42.3139 36.6577C42.8774 37.259 43.1567 38.0118 43.152 38.9162C43.1567 39.7448 42.9176 40.4811 42.4347 41.125C41.9564 41.7689 41.2959 42.2756 40.4531 42.6449C39.6103 43.0142 38.6444 43.1989 37.5554 43.1989ZM51.0657 43.3196C49.8441 43.3149 48.793 43.0142 47.9123 42.4176C47.0363 41.821 46.3616 40.9569 45.8881 39.8253C45.4194 38.6937 45.1874 37.3324 45.1921 35.7415C45.1921 34.1553 45.4265 32.8035 45.8952 31.6861C46.3687 30.5687 47.0434 29.7187 47.9194 29.1364C48.8001 28.5492 49.8488 28.2557 51.0657 28.2557C52.2826 28.2557 53.329 28.5492 54.2049 29.1364C55.0856 29.7235 55.7627 30.5758 56.2362 31.6932C56.7096 32.8059 56.944 34.1553 56.9393 35.7415C56.9393 37.3371 56.7025 38.7008 56.229 39.8324C55.7603 40.964 55.088 41.8281 54.212 42.4247C53.3361 43.0213 52.2873 43.3196 51.0657 43.3196ZM51.0657 40.7699C51.899 40.7699 52.5643 40.3509 53.0614 39.5128C53.5586 38.6747 53.8048 37.4176 53.8001 35.7415C53.8001 34.6383 53.6864 33.7197 53.4592 32.9858C53.2366 32.2519 52.9194 31.7003 52.5075 31.331C52.1003 30.9616 51.6197 30.777 51.0657 30.777C50.2371 30.777 49.5742 31.1913 49.0771 32.0199C48.5799 32.8485 48.329 34.089 48.3242 35.7415C48.3242 36.8589 48.4355 37.7917 48.658 38.5398C48.8853 39.2831 49.2049 39.8419 49.6168 40.2159C50.0288 40.5852 50.5117 40.7699 51.0657 40.7699Z" fill="black"/>
</svg>
