<svg width="55" height="50" viewBox="0 0 55 50" fill="none" xmlns="http://www.w3.org/2000/svg">
<path d="M44.2939 22V48.5713H11V22H44.2939Z" fill="#E5E1D8" stroke="#4B4B4B" stroke-width="2"/>
<path d="M48.8594 22.25H6.14062L27.5 1.39746L48.8594 22.25Z" fill="#E5E1D8" stroke="#4B4B4B" stroke-width="2"/>
<rect x="12" y="21" width="31.29" height="3" fill="#E5E1D8"/>
<path d="M27.5554 42.1989C26.4948 42.1989 25.5502 42.0166 24.7216 41.652C23.8977 41.2827 23.2467 40.776 22.7685 40.1321C22.295 39.4834 22.0511 38.7353 22.0369 37.8878H25.1335C25.1525 38.2429 25.2685 38.5554 25.4815 38.8253C25.6993 39.0904 25.9882 39.2964 26.348 39.4432C26.7079 39.59 27.1127 39.6634 27.5625 39.6634C28.0312 39.6634 28.4455 39.5805 28.8054 39.4148C29.1652 39.2491 29.447 39.0194 29.6506 38.7259C29.8542 38.4323 29.956 38.0937 29.956 37.7102C29.956 37.322 29.8471 36.9787 29.6293 36.6804C29.4162 36.3774 29.1084 36.1406 28.706 35.9702C28.3082 35.7997 27.8348 35.7145 27.2855 35.7145H25.929V33.456H27.2855C27.7495 33.456 28.1591 33.3755 28.5142 33.2145C28.8741 33.0535 29.1534 32.831 29.3523 32.5469C29.5511 32.258 29.6506 31.9219 29.6506 31.5384C29.6506 31.1738 29.563 30.8542 29.3878 30.5795C29.2173 30.3002 28.9759 30.0824 28.6634 29.9261C28.3556 29.7699 27.9957 29.6918 27.5838 29.6918C27.1671 29.6918 26.786 29.7675 26.4403 29.919C26.0947 30.0658 25.8177 30.2765 25.6094 30.5511C25.401 30.8258 25.2898 31.1477 25.2756 31.517H22.3281C22.3423 30.679 22.5814 29.9403 23.0455 29.3011C23.5095 28.6619 24.1345 28.1624 24.9205 27.8026C25.7112 27.438 26.6037 27.2557 27.598 27.2557C28.6018 27.2557 29.4801 27.438 30.233 27.8026C30.9858 28.1671 31.5705 28.6596 31.9872 29.2798C32.4086 29.8954 32.617 30.5866 32.6122 31.3537C32.617 32.1681 32.3636 32.8475 31.8523 33.392C31.3456 33.9366 30.6851 34.2822 29.8707 34.429V34.5426C30.9408 34.6799 31.7552 35.0516 32.3139 35.6577C32.8774 36.259 33.1567 37.0118 33.152 37.9162C33.1567 38.7448 32.9176 39.4811 32.4347 40.125C31.9564 40.7689 31.2959 41.2756 30.4531 41.6449C29.6103 42.0142 28.6444 42.1989 27.5554 42.1989Z" fill="black"/>
</svg>
