<svg width="55" height="50" viewBox="0 0 55 50" fill="none" xmlns="http://www.w3.org/2000/svg">
<path d="M44.2939 22V48.5713H11V22H44.2939Z" fill="#E5E1D8" stroke="#4B4B4B" stroke-width="2"/>
<path d="M48.8594 22.25H6.14062L27.5 1.39746L48.8594 22.25Z" fill="#E5E1D8" stroke="#4B4B4B" stroke-width="2"/>
<rect x="12" y="21" width="31.29" height="3" fill="#E5E1D8"/>
<path d="M27.4915 42.1989C26.4877 42.1989 25.5928 42.0142 24.8068 41.6449C24.0256 41.2756 23.4053 40.7666 22.946 40.1179C22.4867 39.4692 22.2476 38.7259 22.2287 37.8878H25.2116C25.2448 38.4512 25.4815 38.9081 25.9219 39.2585C26.3622 39.6089 26.8854 39.7841 27.4915 39.7841C27.9744 39.7841 28.4006 39.6776 28.7699 39.4645C29.1439 39.2467 29.4351 38.946 29.6435 38.5625C29.8565 38.1742 29.9631 37.7292 29.9631 37.2273C29.9631 36.7159 29.8542 36.2661 29.6364 35.8778C29.4233 35.4896 29.1274 35.1866 28.7486 34.9688C28.3698 34.7509 27.9366 34.6397 27.4489 34.6349C27.0227 34.6349 26.6084 34.7225 26.206 34.8977C25.8082 35.0729 25.4981 35.312 25.2756 35.6151L22.5412 35.125L23.2301 27.4545H32.1222V29.9688H25.7656L25.3892 33.6122H25.4744C25.7301 33.2524 26.116 32.9541 26.6321 32.7173C27.1482 32.4806 27.7259 32.3622 28.3651 32.3622C29.241 32.3622 30.0223 32.5682 30.7088 32.9801C31.3954 33.392 31.9375 33.9579 32.3352 34.6776C32.733 35.3925 32.9295 36.2164 32.9247 37.1491C32.9295 38.1293 32.7022 39.0005 32.2429 39.7628C31.7884 40.5204 31.1515 41.117 30.3324 41.5526C29.518 41.9834 28.571 42.1989 27.4915 42.1989Z" fill="black"/>
</svg>
