<svg width="40" height="86" viewBox="0 0 40 86" fill="none" xmlns="http://www.w3.org/2000/svg">
<path d="M20 21C25.0385 21 29.7662 24.3742 33.2871 30.1836C36.7968 35.9747 39 44.0392 39 53C39 61.9608 36.7968 70.0253 33.2871 75.8164C29.7662 81.6258 25.0385 85 20 85C14.9615 85 10.2338 81.6258 6.71289 75.8164C3.20315 70.0253 1 61.9608 1 53C1 44.0392 3.20315 35.9747 6.71289 30.1836C10.2338 24.3742 14.9615 21 20 21Z" fill="#838383" stroke="#4B4B4B" stroke-width="2"/>
<circle cx="20" cy="20" r="19" fill="#838383" stroke="#4B4B4B" stroke-width="2"/>
<path d="M19.4915 60.1989C18.4877 60.1989 17.5928 60.0142 16.8068 59.6449C16.0256 59.2756 15.4053 58.7666 14.946 58.1179C14.4867 57.4692 14.2476 56.7259 14.2287 55.8878H17.2116C17.2448 56.4512 17.4815 56.9081 17.9219 57.2585C18.3622 57.6089 18.8854 57.7841 19.4915 57.7841C19.9744 57.7841 20.4006 57.6776 20.7699 57.4645C21.1439 57.2467 21.4351 56.946 21.6435 56.5625C21.8565 56.1742 21.9631 55.7292 21.9631 55.2273C21.9631 54.7159 21.8542 54.2661 21.6364 53.8778C21.4233 53.4896 21.1274 53.1866 20.7486 52.9688C20.3698 52.7509 19.9366 52.6397 19.4489 52.6349C19.0227 52.6349 18.6084 52.7225 18.206 52.8977C17.8082 53.0729 17.4981 53.312 17.2756 53.6151L14.5412 53.125L15.2301 45.4545H24.1222V47.9688H17.7656L17.3892 51.6122H17.4744C17.7301 51.2524 18.116 50.9541 18.6321 50.7173C19.1482 50.4806 19.7259 50.3622 20.3651 50.3622C21.241 50.3622 22.0223 50.5682 22.7088 50.9801C23.3954 51.392 23.9375 51.9579 24.3352 52.6776C24.733 53.3925 24.9295 54.2164 24.9247 55.1491C24.9295 56.1293 24.7022 57.0005 24.2429 57.7628C23.7884 58.5204 23.1515 59.117 22.3324 59.5526C21.518 59.9834 20.571 60.1989 19.4915 60.1989Z" fill="black"/>
</svg>
