<svg width="72" height="100" viewBox="0 0 72 100" fill="none" xmlns="http://www.w3.org/2000/svg">
<path d="M1.36603 12.866L21.2846 1.36603L70.2846 86.2365L50.366 97.7365L1.36603 12.866Z" fill="#4B4B4B" stroke="#4B4B4B" stroke-width="2"/>
<path d="M58.8698 89.399C59.4033 89.5419 59.9516 89.2253 60.0946 88.6918L62.4239 79.9985C62.5669 79.465 62.2503 78.9167 61.7168 78.7738C61.1834 78.6308 60.635 78.9474 60.4921 79.4809L58.4215 87.2083L50.6941 85.1377C50.1606 84.9948 49.6123 85.3114 49.4694 85.8448C49.3264 86.3783 49.643 86.9266 50.1765 87.0696L58.8698 89.399ZM15 12L14.134 12.5L58.2626 88.933L59.1286 88.433L59.9947 87.933L15.866 11.5L15 12Z" fill="white"/>
</svg>
