<svg width="40" height="86" viewBox="0 0 40 86" fill="none" xmlns="http://www.w3.org/2000/svg">
<path d="M20 21C25.0385 21 29.7662 24.3742 33.2871 30.1836C36.7968 35.9747 39 44.0392 39 53C39 61.9608 36.7968 70.0253 33.2871 75.8164C29.7662 81.6258 25.0385 85 20 85C14.9615 85 10.2338 81.6258 6.71289 75.8164C3.20315 70.0253 1 61.9608 1 53C1 44.0392 3.20315 35.9747 6.71289 30.1836C10.2338 24.3742 14.9615 21 20 21Z" fill="#7AECFF" stroke="#4B4B4B" stroke-width="2"/>
<circle cx="20" cy="20" r="19" fill="#7AECFF" stroke="#4B4B4B" stroke-width="2"/>
<path d="M19.5554 60.1989C18.4948 60.1989 17.5502 60.0166 16.7216 59.652C15.8977 59.2827 15.2467 58.776 14.7685 58.1321C14.295 57.4834 14.0511 56.7353 14.0369 55.8878H17.1335C17.1525 56.2429 17.2685 56.5554 17.4815 56.8253C17.6993 57.0904 17.9882 57.2964 18.348 57.4432C18.7079 57.59 19.1127 57.6634 19.5625 57.6634C20.0312 57.6634 20.4455 57.5805 20.8054 57.4148C21.1652 57.2491 21.447 57.0194 21.6506 56.7259C21.8542 56.4323 21.956 56.0937 21.956 55.7102C21.956 55.322 21.8471 54.9787 21.6293 54.6804C21.4162 54.3774 21.1084 54.1406 20.706 53.9702C20.3082 53.7997 19.8348 53.7145 19.2855 53.7145H17.929V51.456H19.2855C19.7495 51.456 20.1591 51.3755 20.5142 51.2145C20.8741 51.0535 21.1534 50.831 21.3523 50.5469C21.5511 50.258 21.6506 49.9219 21.6506 49.5384C21.6506 49.1738 21.563 48.8542 21.3878 48.5795C21.2173 48.3002 20.9759 48.0824 20.6634 47.9261C20.3556 47.7699 19.9957 47.6918 19.5838 47.6918C19.1671 47.6918 18.786 47.7675 18.4403 47.919C18.0947 48.0658 17.8177 48.2765 17.6094 48.5511C17.401 48.8258 17.2898 49.1477 17.2756 49.517H14.3281C14.3423 48.679 14.5814 47.9403 15.0455 47.3011C15.5095 46.6619 16.1345 46.1624 16.9205 45.8026C17.7112 45.438 18.6037 45.2557 19.598 45.2557C20.6018 45.2557 21.4801 45.438 22.233 45.8026C22.9858 46.1671 23.5705 46.6596 23.9872 47.2798C24.4086 47.8954 24.617 48.5866 24.6122 49.3537C24.617 50.1681 24.3636 50.8475 23.8523 51.392C23.3456 51.9366 22.6851 52.2822 21.8707 52.429V52.5426C22.9408 52.6799 23.7552 53.0516 24.3139 53.6577C24.8774 54.259 25.1567 55.0118 25.152 55.9162C25.1567 56.7448 24.9176 57.4811 24.4347 58.125C23.9564 58.7689 23.2959 59.2756 22.4531 59.6449C21.6103 60.0142 20.6444 60.1989 19.5554 60.1989Z" fill="black"/>
</svg>
