<svg width="59" height="50" viewBox="0 0 59 50" fill="none" xmlns="http://www.w3.org/2000/svg">
<path d="M1 27.5V49H52V23H56.5L35.5 2L14 23H19V27.5H1Z" fill="#B9B9B9" stroke="#4B4B4B" stroke-width="2"/>
<path d="M28.5554 43.1989C27.4948 43.1989 26.5502 43.0166 25.7216 42.652C24.8977 42.2827 24.2467 41.776 23.7685 41.1321C23.295 40.4834 23.0511 39.7353 23.0369 38.8878H26.1335C26.1525 39.2429 26.2685 39.5554 26.4815 39.8253C26.6993 40.0904 26.9882 40.2964 27.348 40.4432C27.7079 40.59 28.1127 40.6634 28.5625 40.6634C29.0312 40.6634 29.4455 40.5805 29.8054 40.4148C30.1652 40.2491 30.447 40.0194 30.6506 39.7259C30.8542 39.4323 30.956 39.0937 30.956 38.7102C30.956 38.322 30.8471 37.9787 30.6293 37.6804C30.4162 37.3774 30.1084 37.1406 29.706 36.9702C29.3082 36.7997 28.8348 36.7145 28.2855 36.7145H26.929V34.456H28.2855C28.7495 34.456 29.1591 34.3755 29.5142 34.2145C29.8741 34.0535 30.1534 33.831 30.3523 33.5469C30.5511 33.258 30.6506 32.9219 30.6506 32.5384C30.6506 32.1738 30.563 31.8542 30.3878 31.5795C30.2173 31.3002 29.9759 31.0824 29.6634 30.9261C29.3556 30.7699 28.9957 30.6918 28.5838 30.6918C28.1671 30.6918 27.786 30.7675 27.4403 30.919C27.0947 31.0658 26.8177 31.2765 26.6094 31.5511C26.401 31.8258 26.2898 32.1477 26.2756 32.517H23.3281C23.3423 31.679 23.5814 30.9403 24.0455 30.3011C24.5095 29.6619 25.1345 29.1624 25.9205 28.8026C26.7112 28.438 27.6037 28.2557 28.598 28.2557C29.6018 28.2557 30.4801 28.438 31.233 28.8026C31.9858 29.1671 32.5705 29.6596 32.9872 30.2798C33.4086 30.8954 33.617 31.5866 33.6122 32.3537C33.617 33.1681 33.3636 33.8475 32.8523 34.392C32.3456 34.9366 31.6851 35.2822 30.8707 35.429V35.5426C31.9408 35.6799 32.7552 36.0516 33.3139 36.6577C33.8774 37.259 34.1567 38.0118 34.152 38.9162C34.1567 39.7448 33.9176 40.4811 33.4347 41.125C32.9564 41.7689 32.2959 42.2756 31.4531 42.6449C30.6103 43.0142 29.6444 43.1989 28.5554 43.1989ZM42.0657 43.3196C40.8441 43.3149 39.793 43.0142 38.9123 42.4176C38.0363 41.821 37.3616 40.9569 36.8881 39.8253C36.4194 38.6937 36.1874 37.3324 36.1921 35.7415C36.1921 34.1553 36.4265 32.8035 36.8952 31.6861C37.3687 30.5687 38.0434 29.7187 38.9194 29.1364C39.8001 28.5492 40.8488 28.2557 42.0657 28.2557C43.2826 28.2557 44.329 28.5492 45.2049 29.1364C46.0856 29.7235 46.7627 30.5758 47.2362 31.6932C47.7096 32.8059 47.944 34.1553 47.9393 35.7415C47.9393 37.3371 47.7025 38.7008 47.229 39.8324C46.7603 40.964 46.088 41.8281 45.212 42.4247C44.3361 43.0213 43.2873 43.3196 42.0657 43.3196ZM42.0657 40.7699C42.899 40.7699 43.5643 40.3509 44.0614 39.5128C44.5586 38.6747 44.8048 37.4176 44.8001 35.7415C44.8001 34.6383 44.6864 33.7197 44.4592 32.9858C44.2366 32.2519 43.9194 31.7003 43.5075 31.331C43.1003 30.9616 42.6197 30.777 42.0657 30.777C41.2371 30.777 40.5742 31.1913 40.0771 32.0199C39.5799 32.8485 39.329 34.089 39.3242 35.7415C39.3242 36.8589 39.4355 37.7917 39.658 38.5398C39.8853 39.2831 40.2049 39.8419 40.6168 40.2159C41.0288 40.5852 41.5117 40.7699 42.0657 40.7699Z" fill="black"/>
</svg>
