<svg width="63" height="50" viewBox="0 0 63 50" fill="none" xmlns="http://www.w3.org/2000/svg">
<path d="M52.2939 22V48.5713H19V22H52.2939Z" fill="#B9B9B9" stroke="#4B4B4B" stroke-width="2"/>
<path d="M19 26.6V48.6H1V26.6H19Z" fill="#B9B9B9" stroke="#4B4B4B" stroke-width="2"/>
<path d="M56.8594 22.25H14.1406L35.5 1.39746L56.8594 22.25Z" fill="#B9B9B9" stroke="#4B4B4B" stroke-width="2"/>
<rect x="20" y="21" width="31.29" height="3" fill="#B9B9B9"/>
<rect width="2" height="19.99" transform="matrix(1 0 0 -1 18 47.58)" fill="#B9B9B9"/>
<path d="M23.179 43V40.7841L28.3565 35.9901C28.7969 35.5639 29.1662 35.1804 29.4645 34.8395C29.7675 34.4986 29.9972 34.1648 30.1534 33.8381C30.3097 33.5066 30.3878 33.1491 30.3878 32.7656C30.3878 32.3395 30.2907 31.9725 30.0966 31.6648C29.9025 31.3523 29.6373 31.1132 29.3011 30.9474C28.965 30.777 28.5838 30.6918 28.1577 30.6918C27.7126 30.6918 27.3243 30.7817 26.9929 30.9616C26.6615 31.1416 26.4058 31.3996 26.2259 31.7358C26.0459 32.072 25.956 32.4721 25.956 32.9361H23.0369C23.0369 31.9844 23.2524 31.1581 23.6832 30.4574C24.1141 29.7566 24.7178 29.2145 25.4943 28.831C26.2708 28.4474 27.1657 28.2557 28.179 28.2557C29.2206 28.2557 30.1274 28.4403 30.8991 28.8097C31.6757 29.1742 32.2794 29.6809 32.7102 30.3295C33.1411 30.9782 33.3565 31.7216 33.3565 32.5597C33.3565 33.1089 33.2476 33.651 33.0298 34.1861C32.8168 34.7211 32.4356 35.3153 31.8864 35.9688C31.3371 36.6174 30.563 37.3963 29.5639 38.3054L27.4403 40.3864V40.4858H33.5483V43H23.179ZM41.4798 43.3196C40.2582 43.3149 39.207 43.0142 38.3263 42.4176C37.4504 41.821 36.7757 40.9569 36.3022 39.8253C35.8335 38.6937 35.6014 37.3324 35.6062 35.7415C35.6062 34.1553 35.8406 32.8035 36.3093 31.6861C36.7828 30.5687 37.4575 29.7187 38.3335 29.1364C39.2141 28.5492 40.2629 28.2557 41.4798 28.2557C42.6966 28.2557 43.743 28.5492 44.619 29.1364C45.4996 29.7235 46.1767 30.5758 46.6502 31.6932C47.1237 32.8059 47.3581 34.1553 47.3533 35.7415C47.3533 37.3371 47.1166 38.7008 46.6431 39.8324C46.1744 40.964 45.502 41.8281 44.6261 42.4247C43.7501 43.0213 42.7013 43.3196 41.4798 43.3196ZM41.4798 40.7699C42.3131 40.7699 42.9783 40.3509 43.4755 39.5128C43.9727 38.6747 44.2189 37.4176 44.2141 35.7415C44.2141 34.6383 44.1005 33.7197 43.8732 32.9858C43.6507 32.2519 43.3335 31.7003 42.9215 31.331C42.5143 30.9616 42.0337 30.777 41.4798 30.777C40.6512 30.777 39.9883 31.1913 39.4911 32.0199C38.994 32.8485 38.743 34.089 38.7383 35.7415C38.7383 36.8589 38.8496 37.7917 39.0721 38.5398C39.2994 39.2831 39.619 39.8419 40.0309 40.2159C40.4428 40.5852 40.9258 40.7699 41.4798 40.7699Z" fill="black"/>
</svg>
