<svg width="72" height="50" viewBox="0 0 72 50" fill="none" xmlns="http://www.w3.org/2000/svg">
<path d="M61.2939 22V48.5713H28V22H61.2939Z" fill="#B9B9B9" stroke="#4B4B4B" stroke-width="2"/>
<path d="M28 26.6V48.6H1V26.6H28Z" fill="#B9B9B9" stroke="#4B4B4B" stroke-width="2"/>
<path d="M65.8594 22.25H23.1406L44.5 1.39746L65.8594 22.25Z" fill="#B9B9B9" stroke="#4B4B4B" stroke-width="2"/>
<rect x="29" y="21" width="31.29" height="3" fill="#B9B9B9"/>
<rect width="2" height="19.98" transform="matrix(1 0 0 -1 27 47.56)" fill="#B9B9B9"/>
<path d="M40.5071 28.4545V43H37.4318V31.3736H37.3466L34.0156 33.4616V30.7344L37.6165 28.4545H40.5071ZM43.9641 43V40.7841L49.1417 35.9901C49.582 35.5639 49.9513 35.1804 50.2496 34.8395C50.5527 34.4986 50.7823 34.1648 50.9386 33.8381C51.0948 33.5066 51.1729 33.1491 51.1729 32.7656C51.1729 32.3395 51.0759 31.9725 50.8817 31.6648C50.6876 31.3523 50.4225 31.1132 50.0863 30.9474C49.7501 30.777 49.369 30.6918 48.9428 30.6918C48.4978 30.6918 48.1095 30.7817 47.7781 30.9616C47.4466 31.1416 47.1909 31.3996 47.011 31.7358C46.8311 32.072 46.7411 32.4721 46.7411 32.9361H43.8221C43.8221 31.9844 44.0375 31.1581 44.4684 30.4574C44.8993 29.7566 45.503 29.2145 46.2795 28.831C47.056 28.4474 47.9509 28.2557 48.9641 28.2557C50.0058 28.2557 50.9125 28.4403 51.6843 28.8097C52.4608 29.1742 53.0645 29.6809 53.4954 30.3295C53.9263 30.9782 54.1417 31.7216 54.1417 32.5597C54.1417 33.1089 54.0328 33.651 53.815 34.1861C53.6019 34.7211 53.2208 35.3153 52.6715 35.9688C52.1223 36.6174 51.3481 37.3963 50.3491 38.3054L48.2255 40.3864V40.4858H54.3335V43H43.9641Z" fill="black"/>
</svg>
