<svg width="27" height="33" viewBox="0 0 27 33" fill="none" xmlns="http://www.w3.org/2000/svg">
<rect y="13" width="27" height="20" rx="2" fill="black"/>
<circle cx="14" cy="21" r="2" fill="white"/>
<rect x="13" y="21" width="2" height="6" rx="1" fill="white"/>
<rect x="5" y="9" width="3" height="5" fill="black"/>
<rect x="20" y="9" width="3" height="5" fill="black"/>
<path d="M5 9.54806V12.5C5 13.3284 5.67157 14 6.5 14C7.32843 14 8 13.3284 8 12.5V9.54806C8 9.18406 8.04464 8.82144 8.13292 8.4683L8.18937 8.24254C8.39439 7.42246 8.76127 6.65163 9.26847 5.97538L9.39294 5.80941C9.79472 5.27371 10.2847 4.81022 10.8418 4.43877L10.9052 4.39654C11.3 4.13336 11.7281 3.92398 12.1782 3.77394C12.7225 3.5925 13.2925 3.5 13.8663 3.5H14H14.1337C14.7075 3.5 15.2775 3.5925 15.8218 3.77394C16.2719 3.92398 16.7 4.13336 17.0948 4.39654L17.1582 4.43877C17.7153 4.81022 18.2053 5.27371 18.6071 5.80941L18.7315 5.97538C19.2387 6.65163 19.6056 7.42246 19.8106 8.24254L19.8671 8.4683C19.9554 8.82143 20 9.18406 20 9.54806V12.5C20 13.3284 20.6716 14 21.5 14C22.3284 14 23 13.3284 23 12.5V9.54806C23 9.18406 22.9554 8.82144 22.8671 8.4683L22.5 7L22.3723 6.48917C22.1266 5.50631 21.6869 4.58249 21.079 3.772C20.6945 3.25939 20.2468 2.79745 19.7465 2.39717L19.2929 2.03434C18.4377 1.35018 17.4682 0.822736 16.4292 0.476406L15.9487 0.316228C15.3203 0.106779 14.6623 0 14 0C13.3377 0 12.6797 0.106779 12.0513 0.316228L11.5708 0.476406C10.5318 0.822736 9.56228 1.35018 8.70708 2.03434L8.25354 2.39717C7.75319 2.79745 7.30546 3.25939 6.921 3.772C6.31314 4.58249 5.87342 5.50631 5.62771 6.48917L5.5 7L5.13292 8.4683C5.04464 8.82143 5 9.18406 5 9.54806Z" fill="black"/>
</svg>
