<svg width="49" height="51" viewBox="0 0 49 51" fill="none" xmlns="http://www.w3.org/2000/svg">
<path d="M8.5 23.5V49.5H42V23.5H46.5L25 2L3 23.5H8.5Z" fill="#838383" stroke="#4B4B4B" stroke-width="2"/>
<path d="M25.5554 45.1989C24.4948 45.1989 23.5502 45.0166 22.7216 44.652C21.8977 44.2827 21.2467 43.776 20.7685 43.1321C20.295 42.4834 20.0511 41.7353 20.0369 40.8878H23.1335C23.1525 41.2429 23.2685 41.5554 23.4815 41.8253C23.6993 42.0904 23.9882 42.2964 24.348 42.4432C24.7079 42.59 25.1127 42.6634 25.5625 42.6634C26.0312 42.6634 26.4455 42.5805 26.8054 42.4148C27.1652 42.2491 27.447 42.0194 27.6506 41.7259C27.8542 41.4323 27.956 41.0937 27.956 40.7102C27.956 40.322 27.8471 39.9787 27.6293 39.6804C27.4162 39.3774 27.1084 39.1406 26.706 38.9702C26.3082 38.7997 25.8348 38.7145 25.2855 38.7145H23.929V36.456H25.2855C25.7495 36.456 26.1591 36.3755 26.5142 36.2145C26.8741 36.0535 27.1534 35.831 27.3523 35.5469C27.5511 35.258 27.6506 34.9219 27.6506 34.5384C27.6506 34.1738 27.563 33.8542 27.3878 33.5795C27.2173 33.3002 26.9759 33.0824 26.6634 32.9261C26.3556 32.7699 25.9957 32.6918 25.5838 32.6918C25.1671 32.6918 24.786 32.7675 24.4403 32.919C24.0947 33.0658 23.8177 33.2765 23.6094 33.5511C23.401 33.8258 23.2898 34.1477 23.2756 34.517H20.3281C20.3423 33.679 20.5814 32.9403 21.0455 32.3011C21.5095 31.6619 22.1345 31.1624 22.9205 30.8026C23.7112 30.438 24.6037 30.2557 25.598 30.2557C26.6018 30.2557 27.4801 30.438 28.233 30.8026C28.9858 31.1671 29.5705 31.6596 29.9872 32.2798C30.4086 32.8954 30.617 33.5866 30.6122 34.3537C30.617 35.1681 30.3636 35.8475 29.8523 36.392C29.3456 36.9366 28.6851 37.2822 27.8707 37.429V37.5426C28.9408 37.6799 29.7552 38.0516 30.3139 38.6577C30.8774 39.259 31.1567 40.0118 31.152 40.9162C31.1567 41.7448 30.9176 42.4811 30.4347 43.125C29.9564 43.7689 29.2959 44.2756 28.4531 44.6449C27.6103 45.0142 26.6444 45.1989 25.5554 45.1989Z" fill="black"/>
</svg>
