<svg width="49" height="51" viewBox="0 0 49 51" fill="none" xmlns="http://www.w3.org/2000/svg">
<path d="M8.5 23.5V49.5H42V23.5H46.5L25 2L3 23.5H8.5Z" fill="#838383" stroke="#4B4B4B" stroke-width="2"/>
<path d="M25.4915 45.1989C24.4877 45.1989 23.5928 45.0142 22.8068 44.6449C22.0256 44.2756 21.4053 43.7666 20.946 43.1179C20.4867 42.4692 20.2476 41.7259 20.2287 40.8878H23.2116C23.2448 41.4512 23.4815 41.9081 23.9219 42.2585C24.3622 42.6089 24.8854 42.7841 25.4915 42.7841C25.9744 42.7841 26.4006 42.6776 26.7699 42.4645C27.1439 42.2467 27.4351 41.946 27.6435 41.5625C27.8565 41.1742 27.9631 40.7292 27.9631 40.2273C27.9631 39.7159 27.8542 39.2661 27.6364 38.8778C27.4233 38.4896 27.1274 38.1866 26.7486 37.9688C26.3698 37.7509 25.9366 37.6397 25.4489 37.6349C25.0227 37.6349 24.6084 37.7225 24.206 37.8977C23.8082 38.0729 23.4981 38.312 23.2756 38.6151L20.5412 38.125L21.2301 30.4545H30.1222V32.9688H23.7656L23.3892 36.6122H23.4744C23.7301 36.2524 24.116 35.9541 24.6321 35.7173C25.1482 35.4806 25.7259 35.3622 26.3651 35.3622C27.241 35.3622 28.0223 35.5682 28.7088 35.9801C29.3954 36.392 29.9375 36.9579 30.3352 37.6776C30.733 38.3925 30.9295 39.2164 30.9247 40.1491C30.9295 41.1293 30.7022 42.0005 30.2429 42.7628C29.7884 43.5204 29.1515 44.117 28.3324 44.5526C27.518 44.9834 26.571 45.1989 25.4915 45.1989Z" fill="black"/>
</svg>
